<svg xmlns="http://www.w3.org/2000/svg" viewBox="0 0 30 20" width="30" height="20">
<rect x="0" y="0" width="30" height="5" fill="#FFC61E"/>
<rect x="0" y="5" width="30" height="5" fill="#fff"/>
<rect x="0" y="10" width="30" height="5" fill="#CE1126"/>
<rect x="0" y="15" width="30" height="5" fill="#3A75C4"/>
<polygon points="0,0 0,20 10,10" fill="#009739"/>
<path d="M8.3,10 A2.3,2.3 0 1,0 3.7,10 A2.3,2.3 0 1,0 8.3,10 Z M8.55,10 A1.85,1.85 0 1,0 4.85,10 A1.85,1.85 0 1,0 8.55,10 Z" fill="#fff" fill-rule="evenodd"/>
<polygon points="3,2.95 3.12349,3.33003 3.52308,3.33004 3.19982,3.56492 3.32328,3.94496 3,3.7101 2.67672,3.94496 2.80018,3.56492 2.47692,3.33004 2.87651,3.33003" fill="#fff"/>
<polygon points="3,7.28 3.12349,7.66003 3.52308,7.66004 3.19982,7.89492 3.32328,8.27496 3,8.0401 2.67672,8.27496 2.80018,7.89492 2.47692,7.66004 2.87651,7.66003" fill="#fff"/>
<polygon points="3,11.62 3.12349,12 3.52308,12 3.19982,12.2349 3.32328,12.615 3,12.3801 2.67672,12.615 2.80018,12.2349 2.47692,12 2.87651,12" fill="#fff"/>
<polygon points="3,15.95 3.12349,16.33 3.52308,16.33 3.19982,16.5649 3.32328,16.945 3,16.7101 2.67672,16.945 2.80018,16.5649 2.47692,16.33 2.87651,16.33" fill="#fff"/>
</svg>
